<svg xmlns="http://www.w3.org/2000/svg" version="1.1" xmlns:xlink="http://www.w3.org/1999/xlink" xmlns:svgjs="http://svgjs.dev/svgjs" width="1000" height="1000"><g clip-path="url(#SvgjsClipPath1054)"><rect width="1000" height="1000" fill="#ffffff"></rect><g transform="matrix(0.7917656373713381,0,0,0.7917656373713381,116.38954869358668,0)"><svg xmlns="http://www.w3.org/2000/svg" version="1.1" xmlns:xlink="http://www.w3.org/1999/xlink" xmlns:svgjs="http://svgjs.dev/svgjs" width="969" height="1263"><svg version="1.1" xmlns="http://www.w3.org/2000/svg" width="969" height="1263">
<path d="M0 0 C0.91842682 0.00182281 1.83685364 0.00364563 2.78311157 0.00552368 C17.16889469 0.05345599 31.20012031 0.6818137 45.375 3.3125 C46.29055664 3.47347168 47.20611328 3.63444336 48.14941406 3.80029297 C71.54210871 8.00612978 94.07488788 15.82721927 115.375 26.3125 C116.08736816 26.65716309 116.79973633 27.00182617 117.53369141 27.35693359 C141.27723042 38.94035339 162.38139032 55.06276537 181.375 73.3125 C181.91253906 73.828125 182.45007813 74.34375 183.00390625 74.875 C199.17550054 90.48377778 199.17550054 90.48377778 204.73184872 99.5188446 C207.9034203 104.3583605 207.9034203 104.3583605 212.79564095 107.14474487 C215.70836483 107.45262926 218.50553424 107.48059625 221.43383789 107.41015625 C222.52783905 107.41961777 223.62184021 107.42907928 224.74899292 107.43882751 C228.36649487 107.45973226 231.98038769 107.41736244 235.59765625 107.375 C238.1389598 107.37811973 240.68026128 107.38535128 243.22154236 107.39648438 C249.24578519 107.41352901 255.26862315 107.39141391 261.2926411 107.3495121 C270.01737542 107.2909914 278.74196827 107.30478584 287.46685696 107.31178284 C294.77905153 107.31628523 302.09059917 107.30482274 309.40265751 107.25770569 C325.46259831 107.22627582 341.27345195 107.77578173 357.375 108.3125 C357.375 157.8125 357.375 207.3125 357.375 258.3125 C359.355 258.6425 361.335 258.9725 363.375 259.3125 C365.44926018 260.01216066 367.50379807 260.77203627 369.5390625 261.578125 C371.32425293 262.28461182 371.32425293 262.28461182 373.14550781 263.00537109 C374.43072927 263.52344582 375.71554997 264.04251565 377 264.5625 C377.65883179 264.82782532 378.31766357 265.09315063 378.99645996 265.36651611 C413.18106325 279.16760663 446.47765397 295.58736493 476.375 317.3125 C475.80203048 324.3561286 473.29281412 330.63902355 470.87890625 337.23828125 C470.41378729 338.52486518 469.94927849 339.81166984 469.4853363 341.09867859 C468.23702664 344.55655044 466.98059349 348.01141909 465.72271729 351.46582031 C464.39929559 355.10494708 463.08374338 358.74691579 461.76757812 362.38867188 C459.63774818 368.27941981 457.50413772 374.16878323 455.36767578 380.05712891 C451.70286914 390.15929333 448.06395773 400.27073153 444.42831421 410.38342285 C443.01114831 414.32430605 441.5922181 418.26455302 440.17329407 422.20480347 C434.66594765 437.49873354 429.16434771 452.79473092 423.66503906 468.09155273 C422.40711048 471.59053862 421.14875076 475.08936925 419.8902359 478.5881443 C419.17369054 480.5806491 418.45760486 482.57331865 417.74157715 484.56600952 C416.83348393 487.0929601 415.92302227 489.61901691 415.01135254 492.14468384 C413.13099055 497.36387548 411.2671114 502.5838145 409.51367188 507.84716797 C409.24363342 508.64883896 408.97359497 509.45050995 408.69537354 510.276474 C408.22250364 511.69054396 407.76018473 513.10821765 407.31195068 514.5302887 C406.00842136 518.41470335 404.76954816 520.09333246 401.375 522.3125 C399.31295776 523.28068542 399.31295776 523.28068542 397.09716797 524.12182617 C395.84599686 524.60198433 395.84599686 524.60198433 394.56954956 525.09184265 C393.67777008 525.42633926 392.7859906 525.76083588 391.8671875 526.10546875 C390.94535675 526.45636063 390.023526 526.8072525 389.07376099 527.16877747 C387.12992415 527.90716544 385.18489606 528.64242397 383.23876953 529.37475586 C380.25133193 530.49949854 377.26802045 531.63467568 374.28515625 532.77148438 C372.3960671 533.48759614 370.5067518 534.20311169 368.6171875 534.91796875 C367.72135956 535.25853806 366.82553162 535.59910736 365.90255737 535.94999695 C365.07474762 536.2606459 364.24693787 536.57129486 363.39404297 536.89135742 C362.66442352 537.16654709 361.93480408 537.44173676 361.18307495 537.7252655 C359.375 538.3125 359.375 538.3125 357.375 538.3125 C357.39071045 539.46210205 357.4064209 540.6117041 357.42260742 541.79614258 C358.55215933 632.91054649 340.13308446 722.61979852 243.375 873.3125 C242.94429199 873.828125 242.51358398 874.34375 242.06982422 874.875 C230.67041536 888.49486433 218.46867404 901.29527344 205.9375 913.875 C205.10927734 914.70789551 204.28105469 915.54079102 203.42773438 916.39892578 C198.57035565 921.24358373 193.57636358 925.84202082 188.375 930.3125 C186.76731627 931.76695517 185.16260285 933.22470895 183.5625 934.6875 C174.47822248 942.8730286 164.84573895 950.41744524 155.18457031 957.90625 C154.02705824 958.80577369 152.87246129 959.70906924 151.72167969 960.6171875 C113.57837629 990.67638779 70.41597313 1015.10813604 26.375 1035.3125 C25.20001953 1035.85229492 24.02503906 1036.39208984 22.81445312 1036.94824219 C19.45534413 1038.46595726 16.07860749 1039.93040809 12.6875 1041.375 C11.69113525 1041.82319092 10.69477051 1042.27138184 9.66821289 1042.7331543 C3.72436971 1045.17293872 -0.03038988 1045.73436476 -6.08081055 1043.4230957 C-7.34018433 1042.87335083 -7.34018433 1042.87335083 -8.625 1042.3125 C-9.52323486 1041.94922607 -10.42146973 1041.58595215 -11.34692383 1041.21166992 C-14.3181125 1039.98274895 -17.25323345 1038.68955515 -20.1875 1037.375 C-21.80954346 1036.65256104 -21.80954346 1036.65256104 -23.46435547 1035.91552734 C-42.41926213 1027.41831112 -60.90221977 1018.40962597 -78.84716797 1007.93164062 C-81.55807515 1006.3515091 -84.27978366 1004.7915847 -87.00390625 1003.234375 C-113.95150465 987.70957505 -139.3881617 969.77704049 -163.625 950.3125 C-165.08679688 949.14267578 -165.08679688 949.14267578 -166.578125 947.94921875 C-171.9670152 943.59144302 -177.18085432 939.08403 -182.3046875 934.41796875 C-184.32654184 932.58332315 -186.37178522 930.78481214 -188.4375 929 C-197.59330427 920.99094656 -206.38463692 912.6487273 -215 904.0625 C-215.74878418 903.31830811 -216.49756836 902.57411621 -217.26904297 901.80737305 C-221.37184358 897.69314784 -225.30487926 893.48754229 -229.09716797 889.08544922 C-231.02256009 886.8511575 -233.0100173 884.67678185 -235 882.5 C-239.72733313 877.24829043 -244.2249471 871.83982593 -248.625 866.3125 C-249.38490234 865.36141357 -249.38490234 865.36141357 -250.16015625 864.39111328 C-307.89817013 791.89441677 -343.65260602 705.86835388 -355.625 600.3125 C-355.73030029 599.25369629 -355.83560059 598.19489258 -355.9440918 597.10400391 C-356.97265822 585.23898091 -356.73399973 573.33616605 -356.6875 561.4375 C-356.68247407 559.18880308 -356.6779131 556.94010507 -356.67382812 554.69140625 C-356.66291117 549.2317467 -356.64626001 543.77212857 -356.625 538.3125 C-357.25696289 538.20429932 -357.88892578 538.09609863 -358.54003906 537.98461914 C-365.66326782 536.43268429 -372.5602312 534.07311745 -379.45214844 531.71948242 C-381.38227634 531.07927712 -383.32412398 530.47326535 -385.27636719 529.90405273 C-400.80801276 525.34252303 -400.80801276 525.34252303 -405.27655029 518.94976807 C-408.24268523 513.09953259 -409.99250395 506.90147333 -411.69970703 500.58963013 C-413.19963111 495.27731655 -415.15775561 490.14343902 -417.0703125 484.96875 C-417.83604112 482.82877765 -418.59851074 480.68763669 -419.35791016 478.54541016 C-421.68405833 471.99764005 -424.01537198 465.45172412 -426.34879684 458.90654373 C-426.80481961 457.62734967 -427.26077481 456.34813152 -427.71666336 455.06888962 C-433.20028803 439.68188427 -438.7225167 424.30879458 -444.25 408.9375 C-444.49000858 408.27002621 -444.73001717 407.60255241 -444.97729874 406.91485214 C-447.36560441 400.27294779 -449.75443659 393.63123298 -452.14386845 386.9897337 C-454.6637431 379.9856367 -457.18204954 372.98097802 -459.69934082 365.97595215 C-461.38343952 361.28989388 -463.06829544 356.60410813 -464.75335693 351.918396 C-465.53525816 349.74373446 -466.31687993 347.56897241 -467.09820557 345.394104 C-468.16489015 342.42519331 -469.23268821 339.45668547 -470.30078125 336.48828125 C-470.61109787 335.62377853 -470.92141449 334.75927582 -471.24113464 333.86857605 C-471.52805679 333.07188004 -471.81497894 332.27518402 -472.1105957 331.4543457 C-472.37288971 330.72406158 -472.63518372 329.99377747 -472.90542603 329.24136353 C-473.49617584 327.6578213 -474.15540059 326.09998731 -474.83276367 324.55151367 C-475.77081447 321.90040001 -476.0578269 320.10005362 -475.625 317.3125 C-473.9987793 315.63427734 -473.9987793 315.63427734 -471.69921875 314.1484375 C-470.8498877 313.58946777 -470.00055664 313.03049805 -469.12548828 312.45458984 C-468.19720215 311.8714502 -467.26891602 311.28831055 -466.3125 310.6875 C-465.35843262 310.07213379 -464.40436523 309.45676758 -463.42138672 308.82275391 C-454.33015352 303.01032612 -445.08442495 297.50256125 -435.625 292.3125 C-434.76777344 291.84134766 -433.91054688 291.37019531 -433.02734375 290.88476562 C-421.66913968 284.6931391 -410.09717843 279.01855096 -398.3125 273.6875 C-396.69915771 272.95297607 -396.69915771 272.95297607 -395.05322266 272.20361328 C-382.74538095 266.72609514 -370.24802367 262.16750911 -357.625 257.3125 C-357.295 208.1425 -356.965 158.9725 -356.625 108.3125 C-338.37329327 107.70410978 -320.34800401 107.22527554 -302.1213932 107.44948769 C-294.40332846 107.53189947 -286.68470437 107.54153847 -278.96627522 107.56458759 C-272.24147882 107.58865018 -265.51873685 107.63740147 -258.79467773 107.7409668 C-252.19794193 107.8423886 -245.60345247 107.87001049 -239.0057888 107.85402489 C-236.51667089 107.86014038 -234.02747863 107.89079803 -231.53899574 107.94735146 C-217.74511895 108.85363311 -217.74511895 108.85363311 -205.79867554 103.31552124 C-203.34079749 100.46878477 -201.4815233 97.42353463 -199.70638371 94.11909676 C-197.85057894 91.01872558 -195.41162008 88.56038715 -192.9375 85.9375 C-192.38989014 85.34807617 -191.84228027 84.75865234 -191.27807617 84.15136719 C-189.72850913 82.53699147 -188.17821204 80.92337085 -186.625 79.3125 C-185.70195068 78.34860352 -185.70195068 78.34860352 -184.76025391 77.36523438 C-175.93495486 68.19026611 -166.91329458 59.81245456 -156.625 52.3125 C-155.64128418 51.58619385 -155.64128418 51.58619385 -154.63769531 50.84521484 C-109.4381572 17.59142145 -56.1350636 -0.23256601 0 0 Z " fill="#0D0909" transform="translate(475.625,176.6875)"></path>
<path d="M0 0 C0.93779297 0.45463623 0.93779297 0.45463623 1.89453125 0.91845703 C37.38433138 18.1296101 69.78046071 42.74903343 93 75 C94.16208984 76.59714844 94.16208984 76.59714844 95.34765625 78.2265625 C109.73203246 98.50779276 121.95253065 121.07474507 129 145 C129.38212646 146.29405762 129.38212646 146.29405762 129.77197266 147.61425781 C133.72198327 161.26667543 136.45839057 174.87376603 138 189 C138.0942627 189.80727539 138.18852539 190.61455078 138.28564453 191.44628906 C139.19216766 200.03150098 139.2433913 208.6266551 139.25 217.25 C139.25067474 218.04513 139.25134949 218.84026001 139.25204468 219.65948486 C139.211044 250.20614298 133.68605023 281.05253597 121 309 C120.66371582 309.74878418 120.32743164 310.49756836 119.98095703 311.26904297 C111.35329582 330.36438793 101.02219172 347.5862901 88 364 C87.57315918 364.54398438 87.14631836 365.08796875 86.70654297 365.6484375 C74.44363061 381.15670575 60.07977212 395.48144774 44 407 C43.40219727 407.43683105 42.80439453 407.87366211 42.18847656 408.32373047 C26.03814651 420.07978619 8.83046131 429.91976784 -9.80371094 437.14599609 C-11.89137604 437.95776272 -13.96545479 438.79762943 -16.0390625 439.64453125 C-26.43506645 443.80941413 -37.08909887 446.53735147 -48 449 C-48.67949707 449.15597656 -49.35899414 449.31195312 -50.05908203 449.47265625 C-88.70282486 458.2288807 -130.27842598 455.60284018 -168 444 C-168.83080078 443.74911621 -169.66160156 443.49823242 -170.51757812 443.23974609 C-203.38912432 433.12192061 -233.46193154 414.98769509 -258.421875 391.42578125 C-260.66719361 389.31314056 -262.9590021 387.30219384 -265.3125 385.3125 C-269.28211976 381.85535164 -272.61737471 378.02276354 -276 374 C-277.21816406 372.61361328 -277.21816406 372.61361328 -278.4609375 371.19921875 C-298.03569746 348.80817768 -312.46806602 322.89334982 -322.32958984 294.87939453 C-322.95072074 293.13814702 -323.60860759 291.41012971 -324.26953125 289.68359375 C-331.06885864 271.05559521 -335.08047769 250.19993613 -335.23828125 230.37890625 C-335.24802979 229.36961563 -335.25777832 228.36032501 -335.26782227 227.32044983 C-335.58538131 185.9661245 -335.58538131 185.9661245 -331 167 C-330.81276367 166.17129395 -330.62552734 165.34258789 -330.43261719 164.48876953 C-322.03966711 127.60472553 -305.09908111 94.05155282 -281 65 C-280.5757373 64.48550293 -280.15147461 63.97100586 -279.71435547 63.44091797 C-271.7923361 53.85288245 -263.54410383 45.01049588 -254 37 C-253.17218018 36.30148926 -253.17218018 36.30148926 -252.32763672 35.58886719 C-232.71117126 19.1038375 -211.44496786 6.3346531 -188 -4 C-186.44345703 -4.69029297 -186.44345703 -4.69029297 -184.85546875 -5.39453125 C-175.06770585 -9.4353508 -164.76715127 -11.81249699 -154.51513672 -14.36279297 C-152.55568985 -14.85921661 -150.60569835 -15.39301368 -148.66015625 -15.94140625 C-101.45850859 -29.18004752 -43.48186529 -21.38864901 0 0 Z " fill="#0E0909" transform="translate(574,219)"></path>
<path d="M0 0 C0.91842682 0.00182281 1.83685364 0.00364563 2.78311157 0.00552368 C17.16889469 0.05345599 31.20012031 0.6818137 45.375 3.3125 C46.29055664 3.47347168 47.20611328 3.63444336 48.14941406 3.80029297 C71.54210871 8.00612978 94.07488788 15.82721927 115.375 26.3125 C116.08736816 26.65716309 116.79973633 27.00182617 117.53369141 27.35693359 C141.27723042 38.94035339 162.38139032 55.06276537 181.375 73.3125 C181.91253906 73.828125 182.45007813 74.34375 183.00390625 74.875 C199.17550054 90.48377778 199.17550054 90.48377778 204.73184872 99.5188446 C207.9034203 104.3583605 207.9034203 104.3583605 212.79564095 107.14474487 C215.70836483 107.45262926 218.50553424 107.48059625 221.43383789 107.41015625 C222.52783905 107.41961777 223.62184021 107.42907928 224.74899292 107.43882751 C228.36649487 107.45973226 231.98038769 107.41736244 235.59765625 107.375 C238.1389598 107.37811973 240.68026128 107.38535128 243.22154236 107.39648438 C249.24578519 107.41352901 255.26862315 107.39141391 261.2926411 107.3495121 C270.01737542 107.2909914 278.74196827 107.30478584 287.46685696 107.31178284 C294.77905153 107.31628523 302.09059917 107.30482274 309.40265751 107.25770569 C325.46259831 107.22627582 341.27345195 107.77578173 357.375 108.3125 C357.375 157.8125 357.375 207.3125 357.375 258.3125 C359.355 258.6425 361.335 258.9725 363.375 259.3125 C365.44926018 260.01216066 367.50379807 260.77203627 369.5390625 261.578125 C371.32425293 262.28461182 371.32425293 262.28461182 373.14550781 263.00537109 C374.43072927 263.52344582 375.71554997 264.04251565 377 264.5625 C377.65883179 264.82782532 378.31766357 265.09315063 378.99645996 265.36651611 C413.18106325 279.16760663 446.47765397 295.58736493 476.375 317.3125 C475.80203048 324.3561286 473.29281412 330.63902355 470.87890625 337.23828125 C470.41378729 338.52486518 469.94927849 339.81166984 469.4853363 341.09867859 C468.23702664 344.55655044 466.98059349 348.01141909 465.72271729 351.46582031 C464.39929559 355.10494708 463.08374338 358.74691579 461.76757812 362.38867188 C459.63774818 368.27941981 457.50413772 374.16878323 455.36767578 380.05712891 C451.70286914 390.15929333 448.06395773 400.27073153 444.42831421 410.38342285 C443.01114831 414.32430605 441.5922181 418.26455302 440.17329407 422.20480347 C434.66594765 437.49873354 429.16434771 452.79473092 423.66503906 468.09155273 C422.65224313 470.90869096 421.63921823 473.72574667 420.62597656 476.54272461 C415.5031346 490.7855104 410.3818221 505.028408 405.375 519.3125 C402.08328307 519.3125 401.43163512 518.92070219 398.8046875 517.14453125 C398.08539062 516.66959229 397.36609375 516.19465332 396.625 515.70532227 C395.84125 515.18381592 395.0575 514.66230957 394.25 514.125 C386.50583849 509.09903311 378.5754872 504.61377777 370.375 500.375 C369.35003418 499.84430908 368.32506836 499.31361816 367.26904297 498.7668457 C348.37558126 489.10315936 328.65502828 480.59645243 308.375 474.3125 C306.79009047 473.79648295 305.20653911 473.27625645 303.625 472.75 C302.66062012 472.43011108 302.66062012 472.43011108 301.67675781 472.10375977 C299.20377852 471.25364035 296.76357207 470.33183966 294.31640625 469.41015625 C288.64253453 467.34225506 282.91767491 465.77306787 277.0625 464.3125 C275.02700719 463.79428893 272.99184857 463.27476337 270.95703125 462.75390625 C269.98975098 462.50656738 269.0224707 462.25922852 268.02587891 462.00439453 C264.74628902 461.14840285 261.50020708 460.2114385 258.25 459.25 C240.21394948 454.04770652 221.85184508 450.53717902 203.375 447.3125 C202.39466797 447.13912109 201.41433594 446.96574219 200.40429688 446.78710938 C197.77138498 446.32529185 195.13659979 445.87771474 192.5 445.4375 C191.73993652 445.30520996 190.97987305 445.17291992 190.19677734 445.03662109 C186.34555278 444.41847965 183.09225976 443.99665584 179.375 445.3125 C177.55365907 446.76228698 177.55365907 446.76228698 175.9375 448.6875 C170.84033361 454.04238829 165.12045931 458.42860865 159.24707031 462.88916016 C158.02116112 463.82122205 156.79898988 464.75822585 155.58105469 465.70068359 C145.39495475 473.57685158 134.72415741 480.23730127 123.375 486.3125 C122.48151855 486.79332031 121.58803711 487.27414062 120.66748047 487.76953125 C94.48331712 501.63200432 65.71206561 511.1466043 36.375 515.3125 C35.20171143 515.49433838 34.02842285 515.67617676 32.81958008 515.86352539 C22.60283851 517.32416248 12.55522824 517.59136674 2.24291992 517.51831055 C-0.47942205 517.49971362 -3.20142838 517.49780396 -5.92382812 517.49804688 C-7.66406545 517.49314193 -9.40430049 517.48731813 -11.14453125 517.48046875 C-11.95380569 517.47935593 -12.76308014 517.4782431 -13.59687805 517.47709656 C-16.85928216 517.4493065 -19.50856051 517.35131316 -22.625 516.3125 C-25.41657855 515.96860989 -28.20239328 515.65907797 -31 515.375 C-44.23448575 513.94143924 -56.67047176 511.68028672 -69.44433594 507.94287109 C-71.481345 507.35402678 -73.52309318 506.7904164 -75.5703125 506.23828125 C-81.38953692 504.64836356 -86.89400291 502.94703219 -92.33984375 500.34765625 C-94.93110758 499.17383588 -97.56773471 498.26021042 -100.25 497.3125 C-129.8772424 485.95193736 -157.24677246 466.69072754 -179.625 444.3125 C-189.61647877 443.95911969 -199.80835527 446.48006389 -209.5625 448.4375 C-210.34467896 448.59244934 -211.12685791 448.74739868 -211.93273926 448.90704346 C-277.68457291 461.94327041 -347.84391367 480.06517127 -402.625 520.3125 C-405.28654408 518.98172796 -405.32933777 517.90227452 -406.31054688 515.12719727 C-406.7948819 513.77463333 -406.7948819 513.77463333 -407.28900146 512.39474487 C-407.63706848 511.39951813 -407.9851355 510.40429138 -408.34375 509.37890625 C-408.71324768 508.34114044 -409.08274536 507.30337463 -409.46343994 506.23416138 C-410.69053843 502.78340454 -411.90759147 499.32918603 -413.125 495.875 C-413.98649471 493.4480359 -414.8488106 491.02136315 -415.71191406 488.5949707 C-417.0440688 484.84908375 -418.37587632 481.10308004 -419.7041626 477.3558197 C-423.53422286 466.55124444 -427.40910122 455.7631903 -431.29977417 444.98031616 C-433.13533274 439.89250603 -434.96808472 434.8036854 -436.80078125 429.71484375 C-437.17876358 428.66543106 -437.55674591 427.61601837 -437.94618225 426.5348053 C-440.87570373 418.39912713 -443.79884659 410.26116985 -446.72002029 402.12249184 C-447.4826251 399.99789872 -448.24536363 397.87335366 -449.00814819 395.74882507 C-449.2606175 395.04563172 -449.51308681 394.34243837 -449.77320671 393.61793613 C-450.2831988 392.1974757 -450.79319458 390.77701659 -451.30319405 389.3565588 C-452.76911942 385.27335667 -454.23416662 381.18984091 -455.69851875 377.10607433 C-456.62161319 374.53245123 -457.54558356 371.95914314 -458.46973801 369.3859005 C-459.14740146 367.49814266 -459.82402502 365.61001163 -460.50064087 363.72187805 C-462.88042524 357.09764922 -465.29645277 350.48920796 -467.76220703 343.89648438 C-468.27857064 342.51023875 -468.79481264 341.12394781 -469.31092834 339.73760986 C-470.29065827 337.10617819 -471.28074955 334.47897385 -472.27684021 331.85369873 C-472.93559898 330.08582001 -472.93559898 330.08582001 -473.60766602 328.28222656 C-473.99809586 327.24729065 -474.3885257 326.21235474 -474.79078674 325.14605713 C-475.61832044 322.33518834 -475.9217157 320.22044908 -475.625 317.3125 C-473.9987793 315.63427734 -473.9987793 315.63427734 -471.69921875 314.1484375 C-470.8498877 313.58946777 -470.00055664 313.03049805 -469.12548828 312.45458984 C-468.19720215 311.8714502 -467.26891602 311.28831055 -466.3125 310.6875 C-465.35843262 310.07213379 -464.40436523 309.45676758 -463.42138672 308.82275391 C-454.33015352 303.01032612 -445.08442495 297.50256125 -435.625 292.3125 C-434.76777344 291.84134766 -433.91054688 291.37019531 -433.02734375 290.88476562 C-421.66913968 284.6931391 -410.09717843 279.01855096 -398.3125 273.6875 C-396.69915771 272.95297607 -396.69915771 272.95297607 -395.05322266 272.20361328 C-382.74538095 266.72609514 -370.24802367 262.16750911 -357.625 257.3125 C-357.295 208.1425 -356.965 158.9725 -356.625 108.3125 C-338.37329327 107.70410978 -320.34800401 107.22527554 -302.1213932 107.44948769 C-294.40332846 107.53189947 -286.68470437 107.54153847 -278.96627522 107.56458759 C-272.24147882 107.58865018 -265.51873685 107.63740147 -258.79467773 107.7409668 C-252.19794193 107.8423886 -245.60345247 107.87001049 -239.0057888 107.85402489 C-236.51667089 107.86014038 -234.02747863 107.89079803 -231.53899574 107.94735146 C-217.74511895 108.85363311 -217.74511895 108.85363311 -205.79867554 103.31552124 C-203.34079749 100.46878477 -201.4815233 97.42353463 -199.70638371 94.11909676 C-197.85057894 91.01872558 -195.41162008 88.56038715 -192.9375 85.9375 C-192.38989014 85.34807617 -191.84228027 84.75865234 -191.27807617 84.15136719 C-189.72850913 82.53699147 -188.17821204 80.92337085 -186.625 79.3125 C-185.70195068 78.34860352 -185.70195068 78.34860352 -184.76025391 77.36523438 C-175.93495486 68.19026611 -166.91329458 59.81245456 -156.625 52.3125 C-155.64128418 51.58619385 -155.64128418 51.58619385 -154.63769531 50.84521484 C-109.4381572 17.59142145 -56.1350636 -0.23256601 0 0 Z M-57.625 28.3125 C-59.54104669 28.75270727 -61.45768772 29.19033811 -63.375 29.625 C-95.93433599 37.92872327 -126.29908774 54.3755456 -151.625 76.3125 C-152.39714844 76.96734375 -153.16929687 77.6221875 -153.96484375 78.296875 C-155.87885239 79.9408088 -157.75458308 81.61916397 -159.625 83.3125 C-160.55699219 84.14136719 -161.48898437 84.97023438 -162.44921875 85.82421875 C-204.39081068 123.38593963 -233.21349688 180.74686829 -236.80911255 237.20333862 C-237.05947597 243.28143406 -237.09625816 249.35541359 -237.07104492 255.43798828 C-237.06254355 258.54657593 -237.09142847 261.65331097 -237.12304688 264.76171875 C-237.22040318 292.88716457 -231.12039557 320.2889632 -220.625 346.3125 C-220.34930176 346.99763672 -220.07360352 347.68277344 -219.78955078 348.38867188 C-209.14905183 374.46520846 -194.43089493 398.06206301 -175.15625 418.59375 C-173.01684482 420.89162963 -170.9648101 423.22908807 -168.9375 425.625 C-165.48035164 429.59461976 -161.64776354 432.92987471 -157.625 436.3125 C-156.70074219 437.12460937 -155.77648437 437.93671875 -154.82421875 438.7734375 C-127.76905409 462.42513836 -96.81300366 477.83462449 -62.625 488.3125 C-61.87186523 488.54839844 -61.11873047 488.78429687 -60.34277344 489.02734375 C-28.84594845 498.70893938 8.14079151 499.3060572 40.375 493.3125 C41.32906738 493.13557617 42.28313477 492.95865234 43.26611328 492.77636719 C60.14981784 489.54741097 76.81152696 485.37641662 92.3046875 477.78515625 C95.42785659 476.28714767 98.59262869 475.02500814 101.8125 473.75 C118.32233035 466.70065215 133.42992074 456.52699251 147.375 445.3125 C147.91318359 444.88855957 148.45136719 444.46461914 149.00585938 444.02783203 C163.96449777 432.20493305 177.96923768 418.39075176 189.18066406 402.95117188 C190.37733421 401.30929738 191.60358707 399.69333212 192.8359375 398.078125 C204.30337264 382.81759777 213.09498633 365.90690696 220.375 348.3125 C220.92266939 347.02712731 221.47083028 345.74196391 222.01953125 344.45703125 C233.09069678 318.15310043 237.60313761 289.7949961 237.625 261.375 C237.62567474 260.58415009 237.62634949 259.79330017 237.62704468 258.97848511 C237.59740934 236.96109239 235.4898386 215.52187271 229.375 194.3125 C229.11654297 193.40032715 228.85808594 192.4881543 228.59179688 191.54833984 C221.68344019 167.72430838 210.88155461 144.47678341 196.375 124.3125 C195.61832031 123.24644531 194.86164063 122.18039062 194.08203125 121.08203125 C191.90661267 118.10575061 189.66629781 115.20032534 187.375 112.3125 C186.62734375 111.35988281 185.8796875 110.40726562 185.109375 109.42578125 C171.53048947 92.75108062 156.00515805 77.63279633 138.375 65.3125 C137.77091309 64.87969727 137.16682617 64.44689453 136.54443359 64.00097656 C109.91136401 44.96172386 78.62272493 31.19184687 46.375 25.3125 C45.43833496 25.13348145 44.50166992 24.95446289 43.53662109 24.77001953 C10.02718347 18.55290922 -24.73078383 19.24716484 -57.625 28.3125 Z " fill="#FED400" transform="translate(475.625,176.6875)"></path>
<path d="M0 0 C14.74540154 12.68955229 24.59004606 30.68648636 27 50 C27.66598108 59.90340355 27.5269271 69.84673886 27.47143888 79.76758862 C27.453629 83.6331578 27.45739748 87.49871697 27.4581604 91.36431885 C27.4562985 97.8463154 27.43908256 104.32812252 27.41162109 110.81005859 C27.38012907 118.27023587 27.36962745 125.7302067 27.3710922 133.19044566 C27.37244975 141.18921314 27.35853855 149.1879027 27.34019899 157.18664646 C27.33596676 159.4685986 27.33452086 161.7505379 27.33372116 164.03249359 C27.33169116 167.63439866 27.31931273 171.236135 27.29938889 174.83798409 C27.29089794 176.76641737 27.29187 178.69488532 27.29327393 180.62333679 C27.12706263 203.61043779 20.2296696 222.49983591 4 239 C2.93265625 240.08667969 2.93265625 240.08667969 1.84375 241.1953125 C-18.66915419 260.74202917 -46.53578928 258 -73 258 C-73 286.05 -73 314.1 -73 343 C-79.24168508 339.53239718 -84.4410929 336.3620942 -89.8125 331.875 C-90.84008423 331.02784424 -90.84008423 331.02784424 -91.88842773 330.16357422 C-100.61872733 322.90883254 -109.29353937 315.34709549 -117 307 C-117.84513405 306.18654712 -118.6902681 305.37309423 -119.56101227 304.53499126 C-123.04297148 300.30284061 -122.69001376 295.98528066 -122.62145996 290.70967102 C-122.62784878 289.6750834 -122.6342376 288.64049577 -122.64082003 287.57455701 C-122.65607835 284.10831158 -122.63560156 280.64320757 -122.61523438 277.17700195 C-122.6187354 274.69152955 -122.62439376 272.20605939 -122.63204956 269.72059631 C-122.64483167 263.66960768 -122.63434855 257.61906575 -122.61293632 251.56813488 C-122.58889649 244.51485962 -122.59064271 237.46166084 -122.59324223 230.40835371 C-122.59693202 217.8158674 -122.57611438 205.22353891 -122.54199219 192.63110352 C-122.50893642 180.42761238 -122.49472803 168.22428697 -122.50097656 156.02075195 C-122.50775229 142.72224878 -122.50524416 129.42381501 -122.48561716 116.12532204 C-122.48457768 115.42088673 -122.48353819 114.71645141 -122.4824672 113.99066957 C-122.48037637 112.57603795 -122.4782654 111.16140636 -122.47613403 109.7467748 C-122.46925761 104.83764513 -122.468566 99.92853692 -122.47001648 95.01940346 C-122.47161306 88.39966211 -122.45661781 81.7800908 -122.43078995 75.16039085 C-122.42364699 72.73489208 -122.42153547 70.3093723 -122.42490768 67.88386536 C-122.42864168 64.56411434 -122.41380748 61.24493252 -122.39440918 57.92524719 C-122.40240107 56.49699685 -122.40240107 56.49699685 -122.41055441 55.03989297 C-122.34303809 48.30824159 -121.02161238 42.40604775 -119 36 C-118.69578125 34.99066406 -118.3915625 33.98132813 -118.078125 32.94140625 C-111.23274312 13.27707811 -98.59340897 0.05580947 -80.4140625 -9.3359375 C-55.00276522 -20.56418513 -22.01341425 -16.67784586 0 0 Z " fill="#FEFEFE" transform="translate(435,271)"></path>
<path d="M0 0 C16.5 0 33 0 50 0 C50 73.92 50 147.84 50 224 C66.17 224 82.34 224 99 224 C99 150.41 99 76.82 99 1 C103.43343952 2.77337581 106.87627221 4.80064212 110.6875 7.5625 C111.30254395 8.00505127 111.91758789 8.44760254 112.55126953 8.90356445 C117.22005547 12.31546311 121.55628011 15.98963508 125.78515625 19.9375 C127.74490183 21.76244827 129.75447362 23.47604355 131.8125 25.1875 C132.40477512 25.73370971 132.99705025 26.27991941 133.6072731 26.84268093 C134.88471847 27.99444516 136.17468365 29.13612663 137.53139067 30.19337475 C143.92168856 35.21364531 148.93052493 40.33677091 150.20276642 48.61793327 C150.81688787 55.58648209 150.69055486 62.55119139 150.58691406 69.53881836 C150.59471677 72.21933569 150.60762764 74.89938813 150.6267395 77.57980347 C150.6612422 84.07549554 150.62687242 90.56903358 150.56822506 97.06448137 C150.50235607 104.63646114 150.50468612 112.20797692 150.50922129 119.780186 C150.51490003 133.29051178 150.45764636 146.79983544 150.36523438 160.30981445 C150.27568354 173.40768276 150.23330525 186.50460699 150.2421875 199.6027832 C150.24300113 200.81450397 150.24300113 200.81450397 150.24383119 202.05070394 C150.24464443 203.2603736 150.24464443 203.2603736 150.2454741 204.49448103 C150.25504695 219.43199029 150.2185036 234.36909061 150.16170557 249.30648435 C150.14276993 254.58078224 150.13782295 259.85498833 150.1374588 265.12931633 C150.1361684 271.55421553 150.10856019 277.97840333 150.04818121 284.40302812 C150.01789889 287.67917097 150.00225622 290.95418424 150.0093956 294.23048973 C150.01507022 297.78421236 149.9777293 301.33495304 149.92926025 304.88829041 C149.94078259 305.92057972 149.95230492 306.95286904 149.96417642 308.01643986 C149.84458931 313.22530479 149.40153962 316.1970908 145.64113998 319.96010685 C144.42879247 320.97503828 143.21509619 321.98836095 142 323 C140.91413551 324.22975793 139.84870031 325.47811354 138.8125 326.75 C128.45206875 338.70256879 114.79266664 350.23570711 101 358 C100.34 358 99.68 358 99 358 C99 329.95 99 301.9 99 273 C82.83 273 66.66 273 50 273 C50 301.38 50 329.76 50 359 C33.5 359 17 359 0 359 C0 240.53 0 122.06 0 0 Z " fill="#FEFEFE" transform="translate(490,256)"></path>
<path d="M0 0 C26.07 0 52.14 0 79 0 C79 104.94 79 209.88 79 318 C56.48220847 308.99288339 34.05194026 296.25797043 14.19282913 282.32963562 C11.95364349 280.87524964 11.95364349 280.87524964 9.04905319 279.92111206 C5.24941904 278.19772398 2.28111246 276.52081927 0 273 C-2.41118618 264.73171101 -1.51137581 255.54239124 -1.36230469 247.03125 C-1.35891879 244.34030172 -1.3602931 241.64974724 -1.36761475 238.95884705 C-1.37389579 233.17044313 -1.3363723 227.38366701 -1.26876068 221.59567261 C-1.17107393 213.22758717 -1.13996778 204.86028575 -1.12490478 196.49169195 C-1.09866574 182.91344907 -1.01887557 169.33607314 -0.90527344 155.75830078 C-0.79506015 142.57182136 -0.71015177 129.38557772 -0.65917969 116.19873047 C-0.65602701 115.38538246 -0.65287432 114.57203446 -0.64962611 113.73403955 C-0.63396522 109.65355465 -0.61880083 105.57306809 -0.60388327 101.49258041 C-0.47955869 67.66095191 -0.25838291 33.83093626 0 0 Z " fill="#FDD300" transform="translate(359,861)"></path>
<path d="M0 0 C26.07 0 52.14 0 79 0 C79.35288013 34.48113882 79.64824026 68.96052243 79.81704527 103.44292422 C79.83705605 107.51582636 79.85776526 111.58872467 79.87890625 115.66162109 C79.88310322 116.47244521 79.88730018 117.28326932 79.89162433 118.11866386 C79.96120515 131.23955376 80.08733248 144.35931953 80.23444474 157.47954302 C80.38418853 170.94700891 80.47296435 184.41388705 80.50541592 197.88215125 C80.52734831 206.19041776 80.59654261 214.49550722 80.72666347 222.80279525 C80.81139199 228.50327093 80.8367711 234.20211014 80.81602204 239.90316944 C80.80578972 243.19186527 80.82999144 246.47387173 80.9072876 249.76183319 C81.33740566 269.00328426 81.33740566 269.00328426 77.43154144 274.01087236 C73.6791717 277.31695902 69.54228485 279.37979994 64.91701794 281.20283341 C62.2313312 282.31964077 59.88798639 283.85512821 57.4765625 285.46875 C47.29660743 291.8430953 37.01989496 297.93470228 26.46142578 303.65966797 C23.65334914 305.18876346 20.85590606 306.7364604 18.05859375 308.28515625 C16.03922304 309.39872868 14.01969388 310.51201383 12 311.625 C10.55572632 312.42562866 10.55572632 312.42562866 9.08227539 313.24243164 C8.18887451 313.73219482 7.29547363 314.22195801 6.375 314.7265625 C5.57835937 315.16564941 4.78171875 315.60473633 3.9609375 316.05712891 C2 317 2 317 0 317 C0 212.39 0 107.78 0 0 Z " fill="#FCD201" transform="translate(516,861)"></path>
<path d="M0 0 C14.73677947 -0.02361113 29.47355744 -0.04111501 44.21035194 -0.05181217 C51.0565823 -0.05691634 57.90280074 -0.06384324 64.74902344 -0.07543945 C71.3821446 -0.08666912 78.01525684 -0.09231955 84.64838791 -0.09487724 C87.152319 -0.09669493 89.65624959 -0.10024191 92.16017532 -0.10573006 C93.9433774 -0.10947545 93.9433774 -0.10947545 95.76260376 -0.11329651 C96.79119822 -0.11599832 97.81979267 -0.11870012 98.87955666 -0.1214838 C114.97403152 -0.08925631 130.87661412 0.4625538 147 1 C147 50.5 147 100 147 151 C136.18166939 147.75450082 136.18166939 147.75450082 130.9375 145.75 C121.05965581 142.16887577 110.89998935 139.53826344 100.77246094 136.76513672 C97.54714503 135.87502224 94.3354754 134.94211684 91.125 134 C84.19648252 132.01301868 77.22394194 130.19518113 70.25 128.375 C69.10031738 128.07335937 67.95063477 127.77171875 66.76611328 127.4609375 C60.21074013 125.76164216 53.6594 124.23329217 47 123 C45.48988753 118.15141574 44.63416467 113.63855998 44.125 108.5625 C39.9906064 72.76975385 23.43010796 32.18893033 1.25390625 3.76171875 C0 2 0 2 0 0 Z " fill="#0D0909" transform="translate(686,284)"></path>
<path d="M0 0 C1.18880138 0.00249693 2.37760277 0.00499386 3.60242844 0.00756645 C4.81802067 0.01023081 6.0336129 0.01289516 7.28604126 0.01564026 C9.86633272 0.01751338 12.44662455 0.01893303 15.0269165 0.01992798 C21.02893457 0.02330309 27.03092962 0.0311112 33.0329386 0.04127747 C39.88960754 0.0526282 46.74627761 0.05799577 53.60295367 0.0629729 C67.65618048 0.07330211 81.70939143 0.09078058 95.76260376 0.11329651 C94.98050105 1.53452878 94.19672423 2.95483986 93.41226196 4.37477112 C92.97597977 5.16580734 92.53969757 5.95684357 92.0901947 6.77185059 C90.17063454 10.15734094 88.06018296 13.40730026 85.95010376 16.67579651 C81.66699553 23.41613652 77.9689547 30.32274226 74.50088501 37.51173401 C73.10009103 40.41405322 71.639023 43.26298317 70.13760376 46.11329651 C58.55350956 69.47519885 52.68997166 96.34475535 49.76260376 122.11329651 C43.18466228 124.49475495 36.61119008 126.09789947 29.76260376 127.48829651 C21.24999365 129.27515441 12.94835923 131.38709808 4.63760376 133.94142151 C1.03874869 135.04739377 -2.58834087 135.99724224 -6.23739624 136.92579651 C-13.24555102 138.77004777 -20.14505395 140.91542992 -27.04989624 143.11329651 C-28.09983765 143.44563293 -29.14977905 143.77796936 -30.23153687 144.12037659 C-36.02289753 145.98260491 -41.67651741 148.01516578 -47.28305054 150.37892151 C-49.23739624 151.11329651 -49.23739624 151.11329651 -51.23739624 151.11329651 C-51.23739624 101.61329651 -51.23739624 52.11329651 -51.23739624 1.11329651 C-16.5354889 -0.04343374 -16.5354889 -0.04343374 0 0 Z " fill="#0D0909" transform="translate(170.23739624023438,283.88670349121094)"></path>
<path d="M0 0 C25.74 0 51.48 0 78 0 C78 68.64 78 137.28 78 208 C70.11111111 201.23809524 70.11111111 201.23809524 67.5 198.6328125 C66.92677002 198.06167725 66.35354004 197.49054199 65.76293945 196.90209961 C65.18116943 196.31565674 64.59939941 195.72921387 64 195.125 C63.38406982 194.50568604 62.76813965 193.88637207 62.13354492 193.24829102 C57.90660986 188.97313784 53.85957416 184.61076644 50 180 C49.20722656 179.08476563 48.41445312 178.16953125 47.59765625 177.2265625 C31.08085094 158.09913394 16.37433122 137.42820653 3 116 C2.4881012 115.35853531 1.97620239 114.71707062 1.4487915 114.0561676 C-0.71341825 109.49507279 -0.39330226 105.22893217 -0.34057617 100.24291992 C-0.34101425 99.15954346 -0.34145233 98.07616699 -0.34190369 96.95996094 C-0.33981566 93.38327947 -0.31648319 89.80706822 -0.29296875 86.23046875 C-0.28737287 83.74897009 -0.28310273 81.26746812 -0.28010559 78.78596497 C-0.26865631 72.25764806 -0.23918808 65.72953168 -0.20599365 59.20129395 C-0.16798896 51.36690179 -0.15613202 43.53240283 -0.13863373 35.69794464 C-0.10955115 23.79849034 -0.05206382 11.89947594 0 0 Z " fill="#FED400" transform="translate(203,861)"></path>
<path d="M0 0 C26.07 0 52.14 0 79 0 C79.52141452 25.61170303 79.52141452 25.61170303 79.63476562 36.65429688 C79.71204271 44.14666648 79.8027524 51.63694252 79.98071289 59.12768555 C80.1235156 65.17744918 80.2000106 71.22496439 80.23340416 77.27628517 C80.25715315 79.5675167 80.30352201 81.85864567 80.37449074 84.14890099 C80.90584907 102.03208501 76.6150596 112.72468748 66 127 C64.6703579 128.93844559 63.38077634 130.89864299 62.08984375 132.86328125 C61.04596216 134.35121866 59.99546536 135.83454336 58.9375 137.3125 C58.36080566 138.12605957 57.78411133 138.93961914 57.18994141 139.77783203 C55.47030234 142.19287521 53.73856158 144.59855181 52 147 C51.47519043 147.72590332 50.95038086 148.45180664 50.40966797 149.19970703 C41.32205106 161.70202988 31.39551478 173.3447154 21.00390625 184.77734375 C19.17665915 186.80405642 17.3976411 188.86313276 15.625 190.9375 C12.58879972 194.42483381 9.38455088 197.72313898 6.125 201 C5.63596191 201.49363037 5.14692383 201.98726074 4.64306641 202.49584961 C1.12340818 206 1.12340818 206 0 206 C0 138.02 0 70.04 0 0 Z " fill="#FCD201" transform="translate(673,861)"></path>
<path d="M0 0 C5.40203313 4.86511706 9.53826872 10.39756587 10.27926254 17.78362656 C10.39038999 21.23769029 10.40521245 24.68039014 10.38818359 28.13623047 C10.39344055 29.44928162 10.39869751 30.76233276 10.40411377 32.11517334 C10.41774098 35.70211084 10.4125072 39.28878823 10.40297651 42.87573004 C10.3953528 46.64047767 10.40243333 50.40520383 10.40713501 54.16995239 C10.41258604 60.49306207 10.40541956 66.81606648 10.39111328 73.13916016 C10.3748021 80.43224315 10.38006667 87.72507431 10.3965925 95.01815116 C10.41024294 101.29526057 10.41210928 107.57229452 10.40427649 113.84941399 C10.39961764 117.59156485 10.39892525 121.3335977 10.40888596 125.07574081 C10.41922711 129.25230358 10.40486037 133.42843819 10.38818359 137.60498047 C10.39425629 138.83332611 10.40032898 140.06167175 10.40658569 141.32723999 C10.33973778 150.3876789 9.36495917 158.68935497 2.88989258 165.50805664 C-5.33891763 172.00415006 -15.75383905 171.50199666 -25.6875 171.25 C-27.08265633 171.22988145 -28.47784104 171.21164025 -29.87304688 171.1953125 C-33.24944067 171.14858041 -36.62433806 171.08307355 -40 171 C-40.07017566 151.22400888 -40.12303005 131.44804314 -40.15543652 111.6719532 C-40.17088538 102.48894201 -40.19193692 93.30600832 -40.22631836 84.12304688 C-40.25628148 76.11633973 -40.2755894 68.10968874 -40.28226548 60.10292709 C-40.28616606 55.86597291 -40.2952914 51.62917932 -40.31719017 47.39227676 C-40.33766471 43.39829102 -40.34381181 39.40453091 -40.33932304 35.41049767 C-40.34014337 33.95048353 -40.34604345 32.49046128 -40.35761642 31.03049278 C-40.44212715 19.81190586 -40.00943269 9.96419252 -31.859375 1.62890625 C-24.10235917 -5.16663073 -8.61234764 -5.9123668 0 0 Z " fill="#100C0C" transform="translate(402,309)"></path>
<path d="M0 0 C0.66 0 1.32 0 2 0 C3.85543608 2.42280084 5.59534302 4.85621107 7.3125 7.375 C8.40134278 8.94600673 9.49122045 10.5162966 10.58203125 12.0859375 C11.14615723 12.90030273 11.7102832 13.71466797 12.29150391 14.55371094 C14.98027217 18.40359061 17.73969535 22.20125143 20.5 26 C25.32238583 32.65243794 30.09727208 39.33604396 34.8034668 46.07128906 C36.99929012 49.20659122 39.21201931 52.31037815 41.5625 55.33203125 C42.305 56.29496094 43.0475 57.25789063 43.8125 58.25 C44.45832031 59.05953125 45.10414063 59.8690625 45.76953125 60.703125 C47 63 47 63 47.05859375 65.28515625 C45.45253382 69.40401843 42.89393965 72.66920453 40.25 76.1875 C39.05839853 77.80454366 37.86699784 79.4217353 36.67578125 81.0390625 C35.75853271 82.2751123 35.75853271 82.2751123 34.82275391 83.53613281 C31.99682049 87.35602566 29.21678979 91.20860772 26.4375 95.0625 C25.63723389 96.16875732 25.63723389 96.16875732 24.82080078 97.29736328 C21.04598428 102.52271441 17.3276381 107.78584706 13.625 113.0625 C9.57248239 118.8358053 5.4387911 124.51402931 1 130 C-3.13612745 126.30134757 -5.94761025 121.8322271 -9 117.25 C-13.18463581 111.04389226 -17.45594871 104.94812061 -22 99 C-27.12272502 92.28755232 -31.92209242 85.38528632 -36.63671875 78.38085938 C-37.14847656 77.62224609 -37.66023438 76.86363281 -38.1875 76.08203125 C-38.66703125 75.36740723 -39.1465625 74.6527832 -39.640625 73.91650391 C-41.09311125 71.79414392 -41.09311125 71.79414392 -43.4375 69.26171875 C-45 67 -45 67 -44.75512695 64.61376953 C-43.98369563 61.94356462 -43.05706745 60.19247368 -41.48046875 57.91796875 C-40.95904297 57.15935547 -40.43761719 56.40074219 -39.90039062 55.61914062 C-39.33513672 54.81669922 -38.76988281 54.01425781 -38.1875 53.1875 C-37.60291016 52.34509766 -37.01832031 51.50269531 -36.41601562 50.63476562 C-32.25576338 44.67936678 -27.93919321 38.85539446 -23.53540039 33.07885742 C-18.98843567 27.07896317 -14.74297115 20.8882675 -10.5390625 14.64453125 C-7.99276598 10.87055605 -5.41554413 7.12287837 -2.7421875 3.4375 C-2.26378418 2.77621094 -1.78538086 2.11492188 -1.29248047 1.43359375 C-0.86596191 0.96050781 -0.43944336 0.48742187 0 0 Z " fill="#0D0809" transform="translate(475,28)"></path>
<path d="M0 0 C0.8683548 -0.00960754 1.73670959 -0.01921509 2.63137817 -0.02911377 C3.56368256 -0.03336365 4.49598694 -0.03761353 5.45654297 -0.04199219 C6.42598846 -0.04769226 7.39543396 -0.05339233 8.39425659 -0.05926514 C10.4469087 -0.06870622 12.4995759 -0.07524558 14.55224609 -0.07910156 C17.66645421 -0.08876701 20.77999078 -0.11978251 23.89404297 -0.15136719 C25.89403907 -0.15790188 27.89403988 -0.16315052 29.89404297 -0.16699219 C30.81420197 -0.17933899 31.73436096 -0.19168579 32.68240356 -0.20440674 C39.88101768 -0.18005811 47.66021011 0.39328847 53.07373047 5.53613281 C56.97952315 12.37127001 56.91431936 18.26092971 56.8894043 26.02612305 C56.88624485 28.08924236 56.90972982 30.15092484 56.93505859 32.21386719 C56.93570313 33.52548828 56.93634766 34.83710937 56.93701172 36.18847656 C56.93999268 37.38206787 56.94297363 38.57565918 56.94604492 39.80541992 C56.3719069 44.98019182 54.51059307 48.1796577 50.94873047 51.91113281 C44.87681216 56.58507728 36.60815875 56.46392515 29.26123047 56.42675781 C28.40746826 56.42867126 27.55370605 56.43058472 26.67407227 56.43255615 C24.88248395 56.43390734 23.09088549 56.43028612 21.29931641 56.421875 C18.58066498 56.41116014 15.86267421 56.42180679 13.14404297 56.43457031 C11.39143737 56.43324853 9.63883217 56.43068574 7.88623047 56.42675781 C7.08596436 56.43080627 6.28569824 56.43485474 5.46118164 56.43902588 C-1.08911127 56.38547239 -7.57115814 55.83695906 -13.30126953 52.47363281 C-19.44391524 45.78898896 -18.92321913 37.83987552 -18.87231445 29.29077148 C-18.86377535 27.10012657 -18.89266408 24.91206977 -18.92431641 22.72167969 C-18.92592818 21.31477942 -18.92535134 19.90787458 -18.92236328 18.50097656 C-18.92514282 16.60400024 -18.92514282 16.60400024 -18.92797852 14.66870117 C-18.14584677 9.20062977 -15.73479349 6.1697867 -11.42626953 2.84863281 C-7.5099545 0.64570561 -4.45541461 0.04000862 0 0 Z " fill="#FDFDFD" transform="translate(657.42626953125,736.8388671875)"></path>
<path d="M0 0 C8.58 0 17.16 0 26 0 C27.03640625 1.95164062 28.0728125 3.90328125 29.140625 5.9140625 C30.15598954 7.82087558 31.17242599 9.72711354 32.18896484 11.63330078 C32.89028114 12.94976151 33.59049645 14.26680941 34.28955078 15.58447266 C35.29945674 17.48759074 36.31341476 19.38850254 37.328125 21.2890625 C37.9355957 22.43068848 38.54306641 23.57231445 39.16894531 24.74853516 C40.97769369 27.96038994 42.91636755 30.96304537 45 34 C45.33209473 33.3608667 45.66418945 32.7217334 46.00634766 32.06323242 C47.5447634 29.10406332 49.08487421 26.14577944 50.625 23.1875 C51.40810547 21.68026367 51.40810547 21.68026367 52.20703125 20.14257812 C52.72910156 19.14033203 53.25117188 18.13808594 53.7890625 17.10546875 C54.26037598 16.19949951 54.73168945 15.29353027 55.21728516 14.36010742 C57.76898631 9.55059455 60.39288902 4.77970346 63 0 C71.91 0 80.82 0 90 0 C90 18.15 90 36.3 90 55 C84.39 55 78.78 55 73 55 C72.67 43.12 72.34 31.24 72 19 C70.185 22.17625 68.37 25.3525 66.5 28.625 C65.90791748 29.66060059 65.31583496 30.69620117 64.70581055 31.76318359 C62.28462675 35.99819541 59.86503005 40.23403727 57.45703125 44.4765625 C57.08964844 45.12286621 56.72226562 45.76916992 56.34375 46.43505859 C55.37000439 48.14879554 54.39784294 49.86343234 53.42578125 51.578125 C51.4885001 54.86884914 51.4885001 54.86884914 48.41015625 55.6953125 C44.44960503 56.20366797 41.83173938 56.19553709 38 55 C33.93887867 51.12519435 31.70117998 45.59873255 29.29296875 40.61572266 C27.49086381 36.96999904 25.50713238 33.43453893 23.51953125 29.88745117 C21.31897557 25.94010642 19.16407132 21.96746408 17 18 C16.67 30.21 16.34 42.42 16 55 C10.72 55 5.44 55 0 55 C0 36.85 0 18.7 0 0 Z " fill="#FAFAFA" transform="translate(395,737)"></path>
<path d="M0 0 C3.26294757 1.08764919 3.62169918 1.48851217 5.4609375 4.18359375 C6.15884399 5.19123779 6.15884399 5.19123779 6.87084961 6.21923828 C7.36721924 6.95126465 7.86358887 7.68329102 8.375 8.4375 C9.44556854 9.98640061 10.51722124 11.53455232 11.58984375 13.08203125 C12.14655762 13.88850098 12.70327148 14.6949707 13.27685547 15.52587891 C16.11185333 19.59641849 19.02430668 23.61023185 21.9375 27.625 C25.03514536 31.90012664 25.03514536 31.90012664 26.55810547 34.02832031 C27.517963 35.34085154 28.50698345 36.6325516 29.52392578 37.90136719 C32.94712171 42.27145473 32.94712171 42.27145473 33.17578125 45.421875 C31.35632051 49.41139024 28.81729912 52.75673515 26.1875 56.25 C25.00299026 57.85479305 23.81941941 59.46027947 22.63671875 61.06640625 C21.73058838 62.29061279 21.73058838 62.29061279 20.80615234 63.53955078 C17.98369873 67.38446664 15.24019406 71.28373328 12.5 75.1875 C11.5522548 76.53527684 10.6043457 77.88293845 9.65625 79.23046875 C9.21796875 79.85356934 8.7796875 80.47666992 8.328125 81.11865234 C6.23166806 84.08837609 4.11615292 87.04428641 2 90 C-2.53523723 88.49174559 -4.45792102 84.8066776 -6.9375 81 C-7.9067479 79.54937172 -8.87819268 78.10020945 -9.8515625 76.65234375 C-10.36106445 75.8929248 -10.87056641 75.13350586 -11.39550781 74.35107422 C-14.62563947 69.61793851 -18.02566537 65.00582888 -21.40795898 60.38085938 C-25.07764321 55.34220076 -28.57892369 50.21056238 -32 45 C-27.61912192 37.80461037 -22.87623459 31.06131382 -17.78100586 24.36108398 C-13.29453144 18.44432236 -8.99828746 12.40603383 -4.74536133 6.31982422 C-1.08481244 1.08481244 -1.08481244 1.08481244 0 0 Z " fill="#0D0809" transform="translate(594,91)"></path>
<path d="M0 0 C4.53529505 1.50827364 6.45780261 5.19335148 8.9375 9 C9.90549153 10.4479942 10.87563317 11.8945528 11.84765625 13.33984375 C12.35699707 14.09894043 12.86633789 14.85803711 13.39111328 15.64013672 C16.13957647 19.6714941 19.00668026 23.61594178 21.875 27.5625 C22.40988037 28.29919922 22.94476074 29.03589844 23.49584961 29.79492188 C24.01026611 30.50326172 24.52468262 31.21160156 25.0546875 31.94140625 C25.54549805 32.62477051 26.03630859 33.30813477 26.54199219 34.01220703 C27.50937785 35.33110424 28.50502851 36.6297528 29.52832031 37.90576172 C32.94705054 42.27047416 32.94705054 42.27047416 33.17578125 45.421875 C31.35632051 49.41139024 28.81729912 52.75673515 26.1875 56.25 C25.00299026 57.85479305 23.81941941 59.46027947 22.63671875 61.06640625 C21.73058838 62.29061279 21.73058838 62.29061279 20.80615234 63.53955078 C17.98369873 67.38446664 15.24019406 71.28373328 12.5 75.1875 C11.5522548 76.53527684 10.6043457 77.88293845 9.65625 79.23046875 C9.21796875 79.85356934 8.7796875 80.47666992 8.328125 81.11865234 C6.23166806 84.08837609 4.11615292 87.04428641 2 90 C-1.26294757 88.91235081 -1.62169918 88.51148783 -3.4609375 85.81640625 C-4.15872314 84.80900391 -4.15872314 84.80900391 -4.87060547 83.78125 C-5.36705566 83.0490625 -5.86350586 82.316875 -6.375 81.5625 C-7.44682135 80.01096152 -8.51977749 78.46020648 -9.59375 76.91015625 C-10.150625 76.10336426 -10.7075 75.29657227 -11.28125 74.46533203 C-14.60192652 69.70223665 -18.03564247 65.02025445 -21.45849609 60.33032227 C-25.10743094 55.30650223 -28.59059635 50.1892125 -32 45 C-27.61912192 37.80461037 -22.87623459 31.06131382 -17.78100586 24.36108398 C-13.29453144 18.44432236 -8.99828746 12.40603383 -4.74536133 6.31982422 C-1.08481244 1.08481244 -1.08481244 1.08481244 0 0 Z " fill="#0D0809" transform="translate(356,91)"></path>
<path d="M0 0 C19.47 0 38.94 0 59 0 C59 4.29 59 8.58 59 13 C44.81 13 30.62 13 16 13 C16 15.97 16 18.94 16 22 C29.53 22 43.06 22 57 22 C57 25.63 57 29.26 57 33 C43.47 33 29.94 33 16 33 C16 35.97 16 38.94 16 42 C30.52 42 45.04 42 60 42 C60 46.29 60 50.58 60 55 C40.2 55 20.4 55 0 55 C0 36.85 0 18.7 0 0 Z " fill="#FDFDFD" transform="translate(500,737)"></path>
<path d="M0 0 C7.59 0 15.18 0 23 0 C23.85980469 1.61003906 24.71960938 3.22007812 25.60546875 4.87890625 C26.79879868 7.1071354 27.99286471 9.33497043 29.1875 11.5625 C29.49868774 12.14302124 29.80987549 12.72354248 30.13049316 13.32165527 C35.23823939 22.84001204 40.48786341 32.26815332 45.91088867 41.61157227 C46.41982666 42.49772217 46.92876465 43.38387207 47.453125 44.296875 C47.89817383 45.06354492 48.34322266 45.83021484 48.80175781 46.62011719 C50 49 50 49 52 55 C45.73 55 39.46 55 33 55 C29 47 29 47 29 45 C24.24804709 44.92028589 19.50079907 44.89964047 14.74829102 44.93286133 C13.1333326 44.93593682 11.51826012 44.92309147 9.90356445 44.89379883 C0.67599578 44.33900592 0.67599578 44.33900592 -7.19775391 48.07470703 C-8.81407846 50.79209266 -8.81407846 50.79209266 -10 55 C-16.27 55 -22.54 55 -29 55 C-23.99393045 44.78353154 -18.75525932 34.71060672 -13.375 24.6875 C-12.89654129 23.79593201 -12.89654129 23.79593201 -12.40841675 22.88635254 C-8.30272542 15.24086352 -4.16271805 7.61457193 0 0 Z " fill="#FCFCFB" transform="translate(267,737)"></path>
<path d="M0 0 C5.61 0 11.22 0 17 0 C17 13.53 17 27.06 17 41 C29.54 41 42.08 41 55 41 C55 45.62 55 50.24 55 55 C36.85 55 18.7 55 0 55 C0 36.85 0 18.7 0 0 Z " fill="#FBFBFB" transform="translate(574,737)"></path>
<path d="M0 0 C5.61 0 11.22 0 17 0 C17 13.53 17 27.06 17 41 C29.54 41 42.08 41 55 41 C55 45.62 55 50.24 55 55 C36.85 55 18.7 55 0 55 C0 36.85 0 18.7 0 0 Z " fill="#FBFBFB" transform="translate(329,737)"></path>
<path d="M0 0 C0 14.85 0 29.7 0 45 C-3.4775065 44.3044987 -6.19507981 43.65626847 -9.4230957 42.41772461 C-10.26358963 42.09746811 -11.10408356 41.77721161 -11.970047 41.44725037 C-12.8629393 41.10243118 -13.7558316 40.757612 -14.67578125 40.40234375 C-15.6009404 40.04862198 -16.52609955 39.69490021 -17.47929382 39.33045959 C-20.42513296 38.20318293 -23.36882759 37.07042102 -26.3125 35.9375 C-28.31301197 35.17086096 -30.31366149 34.40458074 -32.31445312 33.63867188 C-37.21123736 31.76327078 -42.10627377 29.8833653 -47 28 C-44.03898386 24.91969814 -41.21699424 22.2734696 -37.5859375 20.01953125 C-36.75102783 19.49963623 -35.91611816 18.97974121 -35.0559082 18.4440918 C-33.72885864 17.63645386 -33.72885864 17.63645386 -32.375 16.8125 C-31.45871826 16.25022705 -30.54243652 15.6879541 -29.59838867 15.10864258 C-23.27274877 11.27069318 -16.8549388 7.64224689 -10.3125 4.1875 C-9.50538574 3.76122314 -8.69827148 3.33494629 -7.86669922 2.89575195 C-2.26691072 0 -2.26691072 0 0 0 Z " fill="#656667" transform="translate(119,670)"></path>
<path d="M0 0 C21.92307692 10.38461538 21.92307692 10.38461538 29.75 15.25 C30.96429687 15.98476563 30.96429687 15.98476563 32.203125 16.734375 C36.94912341 19.63128312 41.6037843 22.59116964 46 26 C46 26.66 46 27.32 46 28 C40.25459832 30.26564743 34.50708809 32.52582916 28.75756836 34.78100586 C26.80255385 35.54871735 24.84812056 36.3179107 22.89428711 37.08862305 C20.08339041 38.19711549 17.27043638 39.30023599 14.45703125 40.40234375 C13.58601273 40.74716293 12.7149942 41.09198212 11.81758118 41.44725037 C10.997108 41.76750687 10.17663483 42.08776337 9.33129883 42.41772461 C8.61404129 42.69974228 7.89678375 42.98175995 7.15779114 43.27232361 C5 44 5 44 0 45 C0 30.15 0 15.3 0 0 Z " fill="#656667" transform="translate(833,670)"></path>
<path d="M0 0 C1.97226562 -0.00290039 1.97226562 -0.00290039 3.984375 -0.00585938 C5.0043457 0.01287231 5.0043457 0.01287231 6.04492188 0.03198242 C8.11987007 0.06632135 10.19055909 0.05262614 12.265625 0.03320312 C23.52903412 0.11602231 23.52903412 0.11602231 28.125 4.62890625 C29.47487001 7.79616222 29.29097967 11.15328185 29.3125 14.56640625 C29.32667969 15.58605469 29.34085938 16.60570312 29.35546875 17.65625 C29.10981734 20.8247368 28.68524486 22.85982303 27.125 25.62890625 C21.20070615 30.04757846 14.71760008 29.14277253 7.625 29.12890625 C6.30628906 29.15726563 4.98757813 29.185625 3.62890625 29.21484375 C2.35917969 29.21742188 1.08945312 29.22 -0.21875 29.22265625 C-1.37568359 29.22974609 -2.53261719 29.23683594 -3.72460938 29.24414062 C-7.84628635 28.43922541 -9.32275382 26.90525628 -11.875 23.62890625 C-12.52197266 21.48828125 -12.52197266 21.48828125 -12.5390625 19.37890625 C-12.54550781 18.60546875 -12.55195312 17.83203125 -12.55859375 17.03515625 C-12.53925781 16.24109375 -12.51992188 15.44703125 -12.5 14.62890625 C-12.51933594 13.83484375 -12.53867187 13.04078125 -12.55859375 12.22265625 C-12.54892578 11.0625 -12.54892578 11.0625 -12.5390625 9.87890625 C-12.53342285 9.1828125 -12.5277832 8.48671875 -12.52197266 7.76953125 C-10.60894996 1.43995276 -6.05287611 -0.00366101 0 0 Z " fill="#130E0E" transform="translate(667.875,750.37109375)"></path>
<path d="M0 0 C4.07693453 1.84061603 7.69751713 4.06084021 10.22265625 7.8203125 C12.84924191 15.18531149 11.47568156 23.77945031 8.26171875 30.71484375 C4.83419811 36.92258236 1.04405102 42.75427284 -6 45 C-13.78338636 46.37817128 -19.37378989 43.94752943 -26 40 C-25.67 38.35 -25.34 36.7 -25 35 C-22 35 -22 35 -18.875 36.5625 C-14.49820607 38.50052952 -10.55123861 38.41480451 -6 37 C-2.75955542 34.43464804 -1.30439833 32.913195 0 29 C-0.87011719 29.05220703 -0.87011719 29.05220703 -1.7578125 29.10546875 C-8.6135665 29.34304438 -12.56965429 28.16030729 -17.8125 23.5 C-20.47825388 20.45342414 -20.94693377 18.70312761 -21.25 14.6875 C-20.88716594 9.33569763 -19.41893949 6.28050637 -15.4375 2.6875 C-10.48364361 -0.74209288 -5.91719093 -0.8330782 0 0 Z " fill="#18120E" transform="translate(794,517)"></path>
<path d="M0 0 C2.66371653 1.46108125 5.23612258 2.98060962 7.76953125 4.65625 C7.10953125 6.30625 6.44953125 7.95625 5.76953125 9.65625 C3.13666981 9.14993049 1.33250351 8.41345681 -1.04296875 7.09375 C-4.84808383 5.37771771 -7.09154433 5.14796104 -11.23046875 5.65625 C-13.97166522 6.71894048 -15.79188849 7.90047221 -18.23046875 9.65625 C-19.26572007 11.76966126 -19.26572007 11.76966126 -19.23046875 13.65625 C-18.21984375 13.57375 -17.20921875 13.49125 -16.16796875 13.40625 C-10.28114647 13.78001649 -6.30760211 16.26721955 -2.29296875 20.40625 C0.18610526 24.31266965 0.6760797 27.20667734 -0.23046875 31.65625 C-1.9023195 36.40023258 -3.76128586 40.08917609 -8.23046875 42.65625 C-14.03463489 43.48863042 -19.46417912 43.49291351 -24.79296875 40.96875 C-30.99292741 35.08673794 -30.99292741 35.08673794 -31.76171875 30.45703125 C-31.65490527 18.53397606 -29.29509444 11.28943435 -21.23046875 2.46875 C-15.30254127 -2.90343428 -7.21292485 -3.00029764 0 0 Z " fill="#18120E" transform="translate(875.23046875,546.34375)"></path>
<path d="M0 0 C0.33 1.65 0.66 3.3 1 5 C-1.79035046 6.00380916 -4.58214855 7.0031945 -7.375 8 C-8.1690625 8.28617188 -8.963125 8.57234375 -9.78125 8.8671875 C-10.54179688 9.13789062 -11.30234375 9.40859375 -12.0859375 9.6875 C-12.7876709 9.93886719 -13.4894043 10.19023438 -14.21240234 10.44921875 C-16 11 -16 11 -18 11 C-16.68 14.3 -15.36 17.6 -14 21 C-9.22464674 21 -6.02508463 19.55968425 -1.65625 17.77734375 C1.11126423 16.96743885 2.34351997 17.00381999 5 18 C5.0625 20.25 5.0625 20.25 4 23 C-0.76924137 26.04590205 -5.42854681 27.07142447 -11 28 C-8.525 34.435 -8.525 34.435 -6 41 C-4.87980469 40.566875 -3.75960937 40.13375 -2.60546875 39.6875 C-1.13291204 39.12473947 0.33974972 38.56225376 1.8125 38 C2.55048828 37.71382812 3.28847656 37.42765625 4.04882812 37.1328125 C4.76103516 36.86210938 5.47324219 36.59140625 6.20703125 36.3125 C6.8616333 36.06113281 7.51623535 35.80976562 8.19067383 35.55078125 C10 35 10 35 13 35 C13.495 37.97 13.495 37.97 14 41 C9.00399411 43.01011175 4.00398538 45.00983897 -1 47 C-2.32257813 47.52787109 -2.32257813 47.52787109 -3.671875 48.06640625 C-6.60655717 49.20828446 -8.82030643 50 -12 50 C-12.42410156 48.89785156 -12.84820312 47.79570313 -13.28515625 46.66015625 C-13.87725697 45.12746999 -14.46973415 43.59492914 -15.0625 42.0625 C-15.37396973 41.25578857 -15.68543945 40.44907715 -16.00634766 39.61791992 C-17.61438967 35.47690947 -19.25481734 31.35587862 -20.98828125 27.265625 C-21.30466553 26.51659912 -21.6210498 25.76757324 -21.94702148 24.99584961 C-22.55008984 23.57694924 -23.15991773 22.16089616 -23.77758789 20.74829102 C-25.59546967 16.46392585 -26.53101148 12.63577113 -27 8 C-21.03394859 5.45948247 -15.04980095 2.96001089 -9 0.625 C-8.13375 0.28726563 -7.2675 -0.05046875 -6.375 -0.3984375 C-3.8054855 -1.04926848 -2.46736127 -0.8795686 0 0 Z " fill="#1B150F" transform="translate(96,535)"></path>
<path d="M0 0 C0 1.98 0 3.96 0 6 C-1.01320313 6.16435547 -1.01320313 6.16435547 -2.046875 6.33203125 C-3.38492188 6.56986328 -3.38492188 6.56986328 -4.75 6.8125 C-5.63171875 6.96332031 -6.5134375 7.11414063 -7.421875 7.26953125 C-10.24911897 8.07058371 -11.8870623 8.96531925 -14 11 C-14.33397787 14.12586875 -14.33397787 14.12586875 -14 17 C-9.44536432 18.48290464 -5.13863089 19.24475739 -0.375 19.8125 C6.53214878 20.79696718 6.53214878 20.79696718 9.25 23.5625 C9.8275 24.366875 10.405 25.17125 11 26 C11.33 26.33 11.66 26.66 12 27 C12.49808589 31.86654413 12.75939088 36.4121827 10.625 40.875 C3.52670467 46.62123907 -2.89113516 48.87212536 -12 48 C-12.33 46.02 -12.66 44.04 -13 42 C-12.19175781 41.91363281 -11.38351563 41.82726562 -10.55078125 41.73828125 C-3.59626781 41.0371899 -3.59626781 41.0371899 2.3125 37.6875 C4.17176903 35.15205679 4.17176903 35.15205679 4.3125 32.375 C2.64470456 29.35708444 0.80031632 28.65817373 -2.41015625 27.6015625 C-5.48912571 26.88638709 -8.54823528 26.5509563 -11.6875 26.1875 C-18.65353096 25.19350718 -18.65353096 25.19350718 -21.3125 22.375 C-23.29886263 18.40227473 -24.14711233 15.29751502 -23 11 C-20.14524026 5.70903552 -15.80866891 2.83272444 -10.32421875 0.64453125 C-6.75812134 -0.34438652 -3.68036929 -0.26766322 0 0 Z " fill="#17120D" transform="translate(129,523)"></path>
<path d="M0 0 C0.495 2.97 0.495 2.97 1 6 C-0.76949612 6.50471197 -2.54065223 7.00360685 -4.3125 7.5 C-5.79169922 7.91765625 -5.79169922 7.91765625 -7.30078125 8.34375 C-10 9 -10 9 -13 9 C-12.69707031 9.97348389 -12.39414063 10.94696777 -12.08203125 11.94995117 C-10.95676701 15.57261712 -9.84078379 19.19808711 -8.72753906 22.82446289 C-8.24502988 24.39164625 -7.76002895 25.95806475 -7.27246094 27.52368164 C-6.57085446 29.77812939 -5.87834408 32.03520317 -5.1875 34.29296875 C-4.96876221 34.98899704 -4.75002441 35.68502533 -4.5246582 36.40214539 C-3.42384361 40.03275707 -2.74266994 43.20116496 -3 47 C-5.64738916 48.4606285 -6.89448334 49 -10 49 C-13.81962145 37.04235347 -17.5106625 25.0582858 -21 13 C-21.66386719 13.2165625 -22.32773438 13.433125 -23.01171875 13.65625 C-23.89472656 13.9346875 -24.77773437 14.213125 -25.6875 14.5 C-26.55761719 14.7784375 -27.42773438 15.056875 -28.32421875 15.34375 C-30.99391677 15.99850805 -33.26396684 16.11831495 -36 16 C-36.33 14.02 -36.66 12.04 -37 10 C-33.40420829 8.88451717 -29.80570113 7.77814082 -26.20556641 6.67675781 C-24.63168031 6.19382531 -23.0585153 5.70854018 -21.48583984 5.22167969 C-18.80468641 4.39239613 -16.12128518 3.57072196 -13.4375 2.75 C-12.56899414 2.47978027 -11.70048828 2.20956055 -10.80566406 1.93115234 C-9.98163086 1.68059082 -9.15759766 1.4300293 -8.30859375 1.171875 C-7.57439209 0.9459668 -6.84019043 0.72005859 -6.08374023 0.48730469 C-4 0 -4 0 0 0 Z " fill="#1B140E" transform="translate(172,509)"></path>
<path d="M0 0 C-1.24955889 9.58713284 -4.26527061 18.5468686 -7.25390625 27.69677734 C-8.32933203 31.01666178 -9.35384687 34.35051745 -10.375 37.6875 C-10.69210937 38.72261719 -11.00921875 39.75773438 -11.3359375 40.82421875 C-11.55507813 41.54222656 -11.77421875 42.26023437 -12 43 C-14.31 42.34 -16.62 41.68 -19 41 C-17.67090497 33.48474181 -15.70446667 26.28233829 -13.4375 19 C-13.12103516 17.96488281 -12.80457031 16.92976562 -12.47851562 15.86328125 C-10.15055006 8.30110013 -10.15055006 8.30110013 -9 6 C-13.455 7.485 -13.455 7.485 -18 9 C-18.66 7.02 -19.32 5.04 -20 3 C-17.94409546 2.13007846 -15.87994664 1.27962311 -13.8125 0.4375 C-12.66394531 -0.03816406 -11.51539063 -0.51382812 -10.33203125 -1.00390625 C-6.18758274 -2.242868 -3.8089944 -1.9044972 0 0 Z " fill="#19130E" transform="translate(762,509)"></path>
<path d="M0 0 C1.22691045 3.68073136 0.62624821 4.80104836 -0.64453125 8.40625 C-1.01916504 9.47617187 -1.39379883 10.54609375 -1.77978516 11.6484375 C-3.70917412 16.94788761 -5.6782665 22.23031346 -7.6875 27.5 C-8.48512537 29.59296897 -9.28078407 31.68668877 -10.07421875 33.78125 C-10.42057373 34.68939453 -10.76692871 35.59753906 -11.1237793 36.53320312 C-11.88605315 38.67920897 -12.4967591 40.78120924 -13 43 C-15.31 42.34 -17.62 41.68 -20 41 C-19.43185178 33.98945685 -16.9277489 27.74542853 -14.5 21.1875 C-14.08363281 20.04345703 -13.66726563 18.89941406 -13.23828125 17.72070312 C-10.19019574 9.38039148 -10.19019574 9.38039148 -9 7 C-13.455 7.495 -13.455 7.495 -18 8 C-18.33 6.35 -18.66 4.7 -19 3 C-11.84064969 -0.16663572 -7.81748422 -1.17262263 0 0 Z " fill="#18120E" transform="translate(837,533)"></path>
<path d="M0 0 C4.12071155 0.73584135 5.82805171 1.38627481 8.5 4.625 C9.22722145 8.32170902 8.89169434 11.53385149 7.625 15.0625 C6.5 16.625 6.5 16.625 4.5 17.625 C1.4415977 18.03829761 -1.44712726 18.10218082 -4.5 17.625 C-7.53301431 15.1098174 -8.32633819 13.53190056 -9.0625 9.6875 C-8.05222554 4.18711683 -5.5700071 0.99464412 0 0 Z " fill="#FAD002" transform="translate(789.5,522.375)"></path>
<path d="M0 0 C2.9375 1.5625 2.9375 1.5625 5 4 C5.57875519 7.97894194 5.36109148 10.24499054 3.625 13.875 C2 16 2 16 0 17 C-4.33327174 17.49055907 -6.32000344 17.47744439 -9.9375 14.9375 C-12 12 -12 12 -12.625 8.5 C-11.33615024 1.28244135 -7.03773356 -1.13106432 0 0 Z " fill="#F8CF02" transform="translate(862,566)"></path>
<path d="M0 0 C2.15738318 2.0138391 3.65765662 3.90203503 5.04296875 6.50390625 C5.39423828 7.16197266 5.74550781 7.82003906 6.10742188 8.49804688 C6.46384766 9.17931641 6.82027344 9.86058594 7.1875 10.5625 C7.55552734 11.24763672 7.92355469 11.93277344 8.30273438 12.63867188 C11 17.73795513 11 17.73795513 11 20 C4.07 20 -2.86 20 -10 20 C-8.75444128 16.88610319 -7.61975118 14.13340945 -6.0546875 11.23046875 C-5.70019531 10.56982422 -5.34570312 9.90917969 -4.98046875 9.22851562 C-4.43326172 8.21821289 -4.43326172 8.21821289 -3.875 7.1875 C-3.50246094 6.49462891 -3.12992187 5.80175781 -2.74609375 5.08789062 C-1.83309623 3.39065164 -0.91687284 1.69514862 0 0 Z " fill="#1E1919" transform="translate(278,751)"></path>
<path d="M0 0 C0.33 2.31 0.66 4.62 1 7 C-2.08809695 8.76462683 -3.23312136 9 -7 9 C-7.33 6.69 -7.66 4.38 -8 2 C-2.25 0 -2.25 0 0 0 Z " fill="#1C1610" transform="translate(190,542)"></path>
</svg></svg></g></g><defs><clipPath id="SvgjsClipPath1054"><rect width="1000" height="1000" x="0" y="0" rx="350" ry="350"></rect></clipPath></defs></svg>